<?xml version="1.0" encoding="UTF-8"?>
<svg id="Layer_1" data-name="Layer 1" xmlns="http://www.w3.org/2000/svg" xmlns:xlink="http://www.w3.org/1999/xlink" viewBox="0 0 451.19 154.32">
  <defs>
    <style>
      .cls-1 {
        fill: url(#linear-gradient);
      }

      .cls-1, .cls-2, .cls-3 {
        stroke-width: 0px;
      }

      .cls-2 {
        fill: #1c75bc;
      }

      .cls-4 {
        font-family: ArialMT, Arial;
        font-size: 93.28px;
      }

      .cls-3 {
        fill: #328;
      }
    </style>
    <linearGradient id="linear-gradient" x1="7.2" y1="76.21" x2="333.76" y2="76.21" gradientUnits="userSpaceOnUse">
      <stop offset=".53" stop-color="#328"/>
      <stop offset="1" stop-color="#1c75bc"/>
    </linearGradient>
  </defs>
  <g>
    <text class="cls-4" transform="translate(0 109.61)"><tspan x="0" y="0">POLARI</tspan></text>
    <g>
      <path class="cls-1" d="m7.2,109.61V42.84h25.19c4.43,0,7.82.21,10.16.64,3.28.55,6.03,1.59,8.24,3.12,2.22,1.53,4,3.68,5.35,6.44,1.35,2.76,2.03,5.8,2.03,9.11,0,5.68-1.81,10.48-5.42,14.42-3.61,3.93-10.14,5.9-19.58,5.9h-17.12v27.15H7.2Zm8.84-35.02h17.26c5.71,0,9.76-1.06,12.16-3.19,2.4-2.12,3.6-5.12,3.6-8.97,0-2.79-.71-5.18-2.12-7.17-1.41-1.99-3.27-3.3-5.58-3.94-1.49-.39-4.24-.59-8.24-.59h-17.08v23.87Z"/>
      <path class="cls-1" d="m66.72,77.09c0-11.08,2.98-19.76,8.93-26.03,5.95-6.27,13.63-9.41,23.05-9.41,6.16,0,11.72,1.47,16.67,4.42,4.95,2.95,8.72,7.05,11.32,12.32,2.6,5.27,3.89,11.24,3.89,17.92s-1.37,12.83-4.1,18.17c-2.73,5.34-6.6,9.39-11.61,12.14-5.01,2.75-10.42,4.12-16.21,4.12-6.29,0-11.9-1.52-16.85-4.55-4.95-3.04-8.7-7.18-11.25-12.43-2.55-5.25-3.83-10.81-3.83-16.67Zm9.11.14c0,8.05,2.16,14.38,6.49,19.02,4.33,4.63,9.75,6.95,16.28,6.95s12.12-2.34,16.42-7.01c4.3-4.68,6.44-11.31,6.44-19.9,0-5.44-.92-10.18-2.76-14.23-1.84-4.05-4.52-7.2-8.06-9.43-3.54-2.23-7.51-3.35-11.91-3.35-6.26,0-11.64,2.15-16.15,6.44-4.51,4.3-6.76,11.47-6.76,21.52Z"/>
      <path class="cls-1" d="m141.6,109.61V42.84h8.84v58.89h32.88v7.88h-41.72Z"/>
      <path class="cls-1" d="m186.51,109.61l25.64-66.77h9.52l27.33,66.77h-10.07l-7.79-20.22h-27.92l-7.33,20.22h-9.38Zm19.27-27.42h22.64l-6.97-18.49c-2.13-5.62-3.71-10.23-4.74-13.85-.85,4.28-2.05,8.53-3.6,12.75l-7.33,19.58Z"/>
      <path class="cls-1" d="m256.19,109.61V42.84h29.6c5.95,0,10.48.6,13.57,1.8,3.1,1.2,5.57,3.32,7.42,6.35,1.85,3.04,2.78,6.39,2.78,10.07,0,4.74-1.53,8.73-4.6,11.98-3.07,3.25-7.8,5.31-14.21,6.19,2.34,1.12,4.11,2.23,5.33,3.33,2.58,2.37,5.03,5.33,7.33,8.88l11.61,18.17h-11.11l-8.84-13.89c-2.58-4.01-4.71-7.07-6.38-9.2-1.67-2.12-3.17-3.61-4.49-4.46-1.32-.85-2.66-1.44-4.03-1.78-1-.21-2.64-.32-4.92-.32h-10.25v29.65h-8.84Zm8.84-37.3h18.99c4.04,0,7.2-.42,9.47-1.25,2.28-.83,4.01-2.17,5.19-4.01,1.18-1.84,1.78-3.83,1.78-5.99,0-3.16-1.15-5.75-3.44-7.79-2.29-2.03-5.91-3.05-10.86-3.05h-21.13v22.09Z"/>
      <path class="cls-1" d="m324.92,109.61V42.84h8.84v66.77h-8.84Z"/>
    </g>
  </g>
  <polygon class="cls-3" points="368.54 69.31 375 37.03 381.68 69.46 415.13 77.67 381.71 85.49 374.9 118.41 368.58 85.57 335.21 77.32 368.54 69.31"/>
  <polygon class="cls-2" points="341.87 36.53 375.17 69.47 408.47 36.53 384.4 77.54 407.68 117.92 375.31 85.49 342.16 118.54 367.34 77.54 341.87 36.53"/>
</svg>